<svg xmlns="http://www.w3.org/2000/svg" viewBox="0 0 128 128" width="32" height="32" fill="none">
  <title>BC Konfigurator</title>
  <rect width="128" height="128" rx="26" fill="#14151a"></rect>
    <defs>
      <mask id="mn"><rect width="128" height="128" fill="#fff"></rect><rect x="54.4" y="54.8" width="19.2" height="18.4" fill="#000"></rect></mask>
      <filter id="gn" x="-80%" y="-80%" width="260%" height="260%"><feGaussianBlur stdDeviation="4.6"></feGaussianBlur></filter>
      <filter id="gr" x="-80%" y="-80%" width="260%" height="260%"><feGaussianBlur stdDeviation="2.2"></feGaussianBlur></filter>
    </defs>
    <text x="64" y="86" text-anchor="middle" font-family="Inter Tight, sans-serif" font-size="56" font-weight="800" fill="#ffffff" opacity="0.85" filter="url(#gn)" letter-spacing="-3">BC</text>
    <text x="64" y="86" text-anchor="middle" font-family="Inter Tight, sans-serif" font-size="56" font-weight="800" fill="#101014" letter-spacing="-3">BC</text>
    <g transform="rotate(-34 64 64)" opacity="0.6" filter="url(#gr)">
      <g mask="url(#mn)">
      <path d="M64 64C49 64 49 12 64 12C79 12 79 64 64 64C49 64 49 116 64 116C79 116 79 64 64 64Z" transform="translate(-8 0)" stroke="#ffffff" stroke-width="2" stroke-linejoin="round" stroke-linecap="round"></path>
      <path d="M64 64C49 64 49 12 64 12C79 12 79 64 64 64C49 64 49 116 64 116C79 116 79 64 64 64Z" transform="translate(-4.8 0)" stroke="#c9c6be" stroke-width="2" stroke-linejoin="round" stroke-linecap="round"></path>
      <path d="M64 64C49 64 49 12 64 12C79 12 79 64 64 64C49 64 49 116 64 116C79 116 79 64 64 64Z" transform="translate(-1.6 0)" stroke="#ffffff" stroke-width="2" stroke-linejoin="round" stroke-linecap="round"></path>
      <path d="M64 64C49 64 49 12 64 12C79 12 79 64 64 64C49 64 49 116 64 116C79 116 79 64 64 64Z" transform="translate(1.6 0)" stroke="#c9c6be" stroke-width="2" stroke-linejoin="round" stroke-linecap="round"></path>
      <path d="M64 64C49 64 49 12 64 12C79 12 79 64 64 64C49 64 49 116 64 116C79 116 79 64 64 64Z" transform="translate(4.8 0)" stroke="#ffffff" stroke-width="2" stroke-linejoin="round" stroke-linecap="round"></path>
      <path d="M64 64C49 64 49 12 64 12C79 12 79 64 64 64C49 64 49 116 64 116C79 116 79 64 64 64Z" transform="translate(8 0)" stroke="#c9c6be" stroke-width="2" stroke-linejoin="round" stroke-linecap="round"></path>
      </g>
      <line x1="53.8" y1="56.0" x2="74.2" y2="56.0" stroke="#ffffff" stroke-width="2" stroke-linecap="round"></line>
      <line x1="53.8" y1="59.2" x2="74.2" y2="59.2" stroke="#c9c6be" stroke-width="2" stroke-linecap="round"></line>
      <line x1="53.8" y1="62.4" x2="74.2" y2="62.4" stroke="#ffffff" stroke-width="2" stroke-linecap="round"></line>
      <line x1="53.8" y1="65.6" x2="74.2" y2="65.6" stroke="#c9c6be" stroke-width="2" stroke-linecap="round"></line>
      <line x1="53.8" y1="68.8" x2="74.2" y2="68.8" stroke="#ffffff" stroke-width="2" stroke-linecap="round"></line>
      <line x1="53.8" y1="72.0" x2="74.2" y2="72.0" stroke="#c9c6be" stroke-width="2" stroke-linecap="round"></line>
    </g>
    <g transform="rotate(-34 64 64)">
      <g mask="url(#mn)">
      <path d="M64 64C49 64 49 12 64 12C79 12 79 64 64 64C49 64 49 116 64 116C79 116 79 64 64 64Z" transform="translate(-8 0)" stroke="#ffffff" stroke-width="2" stroke-linejoin="round" stroke-linecap="round"></path>
      <path d="M64 64C49 64 49 12 64 12C79 12 79 64 64 64C49 64 49 116 64 116C79 116 79 64 64 64Z" transform="translate(-4.8 0)" stroke="#c9c6be" stroke-width="2" stroke-linejoin="round" stroke-linecap="round"></path>
      <path d="M64 64C49 64 49 12 64 12C79 12 79 64 64 64C49 64 49 116 64 116C79 116 79 64 64 64Z" transform="translate(-1.6 0)" stroke="#ffffff" stroke-width="2" stroke-linejoin="round" stroke-linecap="round"></path>
      <path d="M64 64C49 64 49 12 64 12C79 12 79 64 64 64C49 64 49 116 64 116C79 116 79 64 64 64Z" transform="translate(1.6 0)" stroke="#c9c6be" stroke-width="2" stroke-linejoin="round" stroke-linecap="round"></path>
      <path d="M64 64C49 64 49 12 64 12C79 12 79 64 64 64C49 64 49 116 64 116C79 116 79 64 64 64Z" transform="translate(4.8 0)" stroke="#ffffff" stroke-width="2" stroke-linejoin="round" stroke-linecap="round"></path>
      <path d="M64 64C49 64 49 12 64 12C79 12 79 64 64 64C49 64 49 116 64 116C79 116 79 64 64 64Z" transform="translate(8 0)" stroke="#c9c6be" stroke-width="2" stroke-linejoin="round" stroke-linecap="round"></path>
      </g>
      <line x1="53.8" y1="56.0" x2="74.2" y2="56.0" stroke="#ffffff" stroke-width="2" stroke-linecap="round"></line>
      <line x1="53.8" y1="59.2" x2="74.2" y2="59.2" stroke="#c9c6be" stroke-width="2" stroke-linecap="round"></line>
      <line x1="53.8" y1="62.4" x2="74.2" y2="62.4" stroke="#ffffff" stroke-width="2" stroke-linecap="round"></line>
      <line x1="53.8" y1="65.6" x2="74.2" y2="65.6" stroke="#c9c6be" stroke-width="2" stroke-linecap="round"></line>
      <line x1="53.8" y1="68.8" x2="74.2" y2="68.8" stroke="#ffffff" stroke-width="2" stroke-linecap="round"></line>
      <line x1="53.8" y1="72.0" x2="74.2" y2="72.0" stroke="#c9c6be" stroke-width="2" stroke-linecap="round"></line>
    </g>
  </svg>
